<?xml version="1.0" encoding="UTF-8" ?>
<!DOCTYPE svg PUBLIC "-//W3C//DTD SVG 1.1//EN" "http://www.w3.org/Graphics/SVG/1.1/DTD/svg11.dtd">
<svg width="512pt" height="512pt" viewBox="0 0 432 432" version="1.1" xmlns="http://www.w3.org/2000/svg">
  <path fill="#ffffff" d=" M 0.00 0.00 L 432.00 0.00 L 432.00 432.00 L 0.00 432.00 L 0.00 0.00 Z" />
  <path fill="#99792d" d=" M    231.30 18.64 235.88 14.34 241.33 15.77 C  264.90 28.56 290.69 38.02 312.20 53.76 C   363.01 34.23 377.16 40.06 387.02 49.87 C 399.49 62.02 406.52 78.92 408.81 96.00 C 411.15 113.40 408.93 131.58 401.53 147.59 C 395.07 161.80 383.78 174.25 369.09 180.05 C 364.25 198.94 353.08 215.71 339.20 229.20 C 324.74 243.08 307.45 253.84 288.97 261.50 C 297.34 272.99 302.11 286.67 305.23 300.42 C 310.79 301.05 315.31 305.02 318.08 309.68 C 331.17 298.53 344.06 286.46 352.10 271.02 C 355.54 264.00 359.93 256.84 367.00 252.98 C 374.03 249.02 383.84 250.65 388.87 257.08 C 394.61 264.27 394.94 274.52 392.16 282.97 C 387.95 293.79 380.41 303.09 371.47 310.38 C 360.59 319.35 347.64 325.83 333.89 329.02 C 346.87 340.42 348.80 359.79 344.25 375.61 C 340.19 388.71 331.92 401.21 319.38 407.47 C 310.20 412.39 298.27 412.41 289.59 406.40 C 285.57 403.85 282.67 400.02 280.11 396.10 C 274.22 400.96 266.49 403.10 258.93 402.65 C 254.34 402.34 250.11 400.37 246.03 398.42 C 235.14 404.49 221.76 406.15 209.88 402.11 C 206.15 401.01 202.83 398.96 199.38 397.24 C 192.75 401.40 184.74 404.01 176.91 402.15 C 171.03 401.53 166.12 398.16 161.57 394.67 C 158.43 400.20 154.17 405.35 148.32 408.13 C 139.75 412.59 129.13 411.71 120.79 407.13 C 108.45 400.52 100.21 388.01 96.43 374.78 C  103.24 331.26 109.96 325.52 117.93 323.68 C 118.62 316.79 120.26 309.40 125.43 304.41 C 128.78 300.81 133.77 299.05 138.63 299.20 C 141.69 286.12 146.35 273.16 154.16 262.12 C 133.91 253.90 114.88 242.14 99.71 226.29 C 87.30 213.17 77.55 197.11 73.67 179.34 C 58.30 172.94 47.19 159.05 41.12 143.89 C 34.36 127.19 32.96 108.53 36.26 90.88 C 39.55 73.67 47.90 56.84 61.85 45.84 C 71.08 38.48 83.16 34.62 94.95 35.94 C 108.35 37.19 120.24 45.16 128.61 55.39 C 203.27 19.23 204.70 11.40 204.79 3.71 Z" />
  <path fill="#773326" d=" M 188.12 34.26 C 217.76 27.61 249.40 30.07 277.57 41.47 C 307.89 53.75 334.15 76.23 350.33 104.72 C 359.83 121.50 365.80 140.56 365.78 159.94 C 365.54 169.91 363.72 179.94 359.73 189.11 C 348.93 183.50 336.82 180.11 324.59 180.53 C 335.85 184.33 346.63 189.27 357.17 194.72 C 355.39 198.69 353.21 202.48 350.74 206.06 C 341.26 200.40 330.40 196.97 319.30 197.16 C 324.44 199.66 329.92 201.44 334.95 204.18 C 339.11 206.35 343.11 208.82 347.30 210.93 C 339.20 221.49 329.45 230.83 318.52 238.42 C 307.43 213.63 285.27 194.98 260.15 185.41 C 259.39 182.69 257.40 180.52 254.97 179.17 C 248.97 175.51 241.94 174.33 235.15 173.03 C 229.09 173.13 223.08 171.19 217.06 172.45 C 209.36 172.77 201.69 173.78 194.40 176.38 C 190.39 177.92 186.15 179.87 183.82 183.65 C 156.94 192.07 132.99 211.06 120.77 236.70 C 110.87 229.53 102.02 220.88 94.78 211.01 C 100.98 207.83 106.81 203.94 113.26 201.26 C 116.44 199.96 119.60 198.63 122.70 197.16 C 111.66 196.96 100.86 200.42 91.46 206.08 C 88.96 202.53 87.06 198.59 85.27 194.65 C 95.60 189.11 106.33 184.41 117.39 180.52 C 105.82 180.14 94.38 183.20 84.05 188.30 L 82.93 188.63 C 77.33 175.95 76.93 161.52 78.60 147.94 C 81.71 125.99 91.11 105.14 104.65 87.67 C 124.93 60.67 155.21 41.57 188.12 34.26 Z" />
  <path fill="#993346" d=" M 60.29 56.29 C 68.70 47.49 80.71 41.42 93.11 42.50 C 103.67 43.21 113.28 48.90 120.51 56.39 C 121.41 57.39 122.29 58.47 122.75 59.76 C 117.55 64.87 111.75 69.36 107.17 75.09 C 101.58 68.40 94.31 62.92 85.96 60.23 C 75.87 56.85 64.39 58.24 55.25 63.62 C 56.13 60.71 58.29 58.48 60.29 56.29 Z" />
  <path fill="#993346" d=" M 350.07 42.59 C 361.23 41.28 372.47 45.76 380.67 53.22 C 383.52 55.94 386.76 58.59 388.21 62.37 L 386.82 62.39 C 378.04 58.14 367.63 57.06 358.33 60.23 C 349.79 62.97 342.29 68.60 336.75 75.59 C 331.93 69.91 326.07 65.28 320.82 60.06 C 327.80 50.77 338.39 43.87 350.07 42.59 Z" />
  <path fill="#2d2d2d" d=" M 55.25 63.62 C 64.39 58.24 75.87 56.85 85.96 60.23 C 73.43 66.64 65.72 79.72 62.20 92.95 C 57.32 112.42 60.01 134.47 72.18 150.82 C 71.60 157.57 71.57 164.36 72.17 171.11 C 59.17 164.06 50.61 150.93 45.83 137.25 C 38.89 116.74 39.66 93.48 48.76 73.74 C 50.75 70.31 51.90 66.00 55.25 63.62 Z" />
  <path fill="#2d2d2d" d=" M 217.25 58.04 C  265.17 78.89 271.94 81.79 277.93 85.83 C   164.75 83.57 160.77 84.89 156.67 85.68 C 162.65 81.58 169.49 78.76 176.62 77.46 C  256.59    Z" />


  <path fill="#99e5b8" d=" M 85.96 60.23 C 94.31 62.92 101.58 68.40 107.17 75.09 C 106.56 75.84 105.91 76.54 105.21 77.21 C 99.38 74.85 91.31 71.49 86.00 76.52 C 88.96 79.23 91.90 82.03 93.99 85.49 C 89.51 85.51 83.70 85.62 81.21 90.05 C 84.83 91.67 88.67 92.99 91.83 95.46 C 81.34 112.18 74.31 131.16 72.18 150.82 C 60.01 134.47 57.32 112.42 62.20 92.95 C 65.72 79.72 73.43 66.64 85.96 60.23 Z" />
  <path fill="#99e5b8" d=" M 336.75 75.59 C 342.29 68.60 349.79 62.97 358.33 60.23 C 362.67 62.45 366.53 65.54 369.75 69.19 C 379.96 80.86 384.60 96.71 384.25 112.04 C 384.45 126.19 379.97 140.38 371.50 151.73 C 369.81 131.36 362.32 111.78 351.32 94.65 C 354.30 92.75 357.56 91.38 360.84 90.10 C 358.52 85.58 352.55 85.56 348.11 85.46 C 350.18 81.91 353.23 79.15 356.17 76.35 C 350.67 71.60 343.24 75.06 337.25 76.66 L 336.75 75.59 Z" />
  <path fill="#2d2d2d" d=" M 154.62 129.18 C 162.29 126.27 171.49 127.69 177.52 133.39 C 183.50 138.72 185.99 147.67 183.30 155.26 C 181.15 161.74 175.65 167.00 169.07 168.84 C 161.41 171.31 152.50 168.82 147.06 162.94 C 141.13 156.82 139.72 147.16 143.43 139.52 C 145.73 142.75 150.36 144.01 153.82 141.86 C 255.22 147.71 257.20 140.10 261.85 134.90 Z" />
  <path fill="#2d2d2d" d=" M 261.85 134.90 C 268.02 127.75 278.98 125.69 287.45 129.77 C 284.33 133.01 284.45 139.05 288.42 141.53 C 291.27 143.58 295.34 143.27 297.99 141.01 C 300.81 147.59 299.65 155.56 295.30 161.19 C 290.73 167.42 282.57 170.73 274.94 169.56 C 266.80 168.52 259.58 162.32 257.34 154.43 C 255.22 147.71 257.20 140.10 261.85 134.90 Z" />
  
  <path fill="#999999" d=" M 130.47 106.22 C 140.83 102.36 151.93 100.35 162.99 100.65 C 172.62 101.40 183.16 104.16 189.71 111.71 C 194.87 121.92 196.21 133.72 195.00 144.99 C 194.01 153.85 190.88 162.92 184.25 169.15 C 177.98 175.50 168.70 177.97 159.97 177.51 C 146.34 177.02 132.22 174.72 120.44 167.45 C 113.36 163.10 107.96 155.49 107.99 146.96 C 107.98 130.65 117.72 115.76 130.47 106.22 Z" />
  <path fill="#999999" d=" M 254.17 111.41 C 260.92 104.00 271.34 101.31 281.01 100.64 C 291.90 100.40 302.87 102.35 313.04 106.20 C 323.81 114.07 332.19 125.69 334.86 138.89 C 335.88 144.68 336.08 150.96 333.46 156.38 C 330.25 162.95 324.08 167.54 317.55 170.48 C 307.99 174.89 297.44 176.72 286.99 177.39 C 278.73 178.03 269.87 177.10 262.95 172.14 C 253.79 165.89 249.45 154.70 248.52 144.01 C 247.58 132.95 248.84 121.30 254.17 111.41 Z" />
  <path fill="#334499" d=" M 154.62 129.18 C 162.29 126.27 171.49 127.69 177.52 133.39 C 183.50 138.72 185.99 147.67 183.30 155.26 C 181.15 161.74 175.65 167.00 169.07 168.84 C 161.41 171.31 152.50 168.82 147.06 162.94 C 141.13 156.82 139.72 147.16 143.43 139.52 C 145.73 142.75 150.36 144.01 153.82 141.86 C " />
  <path fill="#334499" d=" M 261.85 134.90 C 268.02 127.75 278.98 125.69 287.45 129.77 C  291.27 143.58 295.34 143.27 297.99 141.01 C 300.81 147.59 299.65 155.56 295.30 161.19 C 290.73 167.42 282.57 170.73 274.94 169.56 C 266.80 168.52 259.58 162.32 257.34 154.43 C " />
  <path fill="#2d2d2d" d=" M 217.06 172.45 C 223.08 171.19 229.09 173.13 235.15 173.03 C 241.94 174.33 248.97 175.51 254.97 179.17 C 257.40 180.52 259.39 182.69 260.15 185.41 C 259.41 191.40 255.98 196.66 252.69 201.57 C 245.68 211.41 235.73 220.57 223.20 221.87 C 225.42 230.48 233.11 236.75 241.02 240.08 C 250.01 243.92 260.90 241.59 267.63 234.56 C 268.09 235.11 269.01 236.21 269.47 236.77 C 263.64 242.57 255.25 245.75 247.03 244.63 C 236.54 243.12 226.95 236.31 221.92 227.00 C 217.19 236.27 208.31 243.59 198.06 245.75 C 189.10 247.80 179.78 243.62 173.84 236.94 C 174.50 236.25 175.20 235.61 175.93 235.01 C 181.60 241.27 190.48 244.97 198.87 242.54 C 208.76 239.88 217.89 232.07 220.34 221.89 C 210.89 221.04 202.73 215.33 196.42 208.57 C 191.56 203.22 187.25 197.21 184.55 190.47 C 183.87 188.29 182.53 185.88 183.82 183.65 C 186.15 179.87 190.39 177.92 194.40 176.38 C 201.69 173.78 209.36 172.77 217.06 172.45 Z" />
  <path fill="#444444" d=" M 215.29 178.35 C 220.31 178.19 225.92 178.71 229.82 182.21 C 231.99 184.16 231.41 187.63 229.54 189.57 C 225.47 193.96 219.43 195.83 213.66 196.67 C 208.26 197.37 202.37 197.24 197.55 194.42 C 195.64 193.37 194.09 191.27 194.57 188.99 C 195.08 186.15 197.45 184.15 199.78 182.72 C 204.48 179.98 209.91 178.71 215.29 178.35 Z" />
  <path fill="#2d2d2d" d=" M 84.05 188.30 C 94.38 183.20 105.82 180.14 117.39 180.52 C 106.33 184.41 95.60 189.11 85.27 194.65 C 84.17 192.93 83.52 190.97 82.84 189.06 C 83.14 188.87 83.75 188.49 84.05 188.30 Z" />
  <path fill="#2d2d2d" d=" M 324.59 180.53 C 336.82 180.11 348.93 183.50 359.73 189.11 C 359.03 191.04 358.27 192.98 357.17 194.72 C 346.63 189.27 335.85 184.33 324.59 180.53 Z" />
  <path fill="#99e5b8" d=" M 120.77 236.70 C 132.99 211.06 156.94 192.07 183.82 183.65 C 182.53 185.88 183.87 188.29 184.55 190.47 C 187.25 197.21 191.56 203.22 196.42 208.57 C 202.73 215.33 210.89 221.04 220.34 221.89 C 217.89 232.07 208.76 239.88 198.87 242.54 C 190.48 244.97 181.60 241.27 175.93 235.01 C 175.20 235.61 174.50 236.25 173.84 236.94 C 179.78 243.62 189.10 247.80 198.06 245.75 C 208.31 243.59 217.19 236.27 221.92 227.00 C 226.95 236.31 236.54 243.12 247.03 244.63 C 255.25 245.75 263.64 242.57 269.47 236.77 C 269.01 236.21 268.09 235.11 267.63 234.56 C 260.90 241.59 250.01 243.92 241.02 240.08 C 233.11 236.75 225.42 230.48 223.20 221.87 C 235.73 220.57 245.68 211.41 252.69 201.57 C 255.98 196.66 259.41 191.40 260.15 185.41 C 285.27 194.98 307.43 213.63 318.52 238.42 C 282.31 263.99 235.72 274.28 192.08 266.56 C 166.51 262.12 141.61 252.30 120.77 236.70 Z" />

  <path fill="#2d2d2d" d=" M 157.42 207.47 C 160.80 205.23 165.04 210.35 162.14 213.20 C 160.28 216.19 155.22 214.28 155.48 210.91 C 155.22 209.46 156.20 208.12 157.42 207.47 Z" />



  <path fill="#99e5b8" d=" M 372.46 255.50 C 376.36 254.67 380.74 255.46 383.77 258.18 C 389.37 262.96 390.31 271.20 389.02 278.06 C 388.49 279.91 388.28 282.22 386.68 283.49 C 384.70 284.77 382.76 286.12 380.75 287.35 C 379.22 283.46 378.05 279.44 376.76 275.47 C 371.73 275.75 366.82 277.52 361.81 278.23 C 360.45 275.00 359.57 271.58 358.56 268.23 C 361.74 262.79 366.11 257.25 372.46 255.50 Z" />
  <path fill="#993346" d=" M 159.25 264.22 C 162.57 264.78 165.65 266.21 168.86 267.18 C 203.33 277.76 241.09 277.79 275.37 266.40 C 278.23 265.45 281.05 264.32 284.01 263.69 C 286.55 266.07 288.11 269.27 289.77 272.28 C 293.11 278.75 296.30 285.43 297.70 292.62 C 288.21 288.85 277.96 286.45 267.71 287.12 C 278.76 290.55 289.44 295.01 299.88 300.00 C 302.39 310.77 303.10 322.02 301.79 333.00 L 300.94 333.45 C 292.03 328.97 282.10 326.57 272.12 326.75 C 276.15 328.52 280.33 329.94 284.41 331.60 C 290.05 334.05 295.39 337.12 300.90 339.85 C 299.75 347.67 297.20 355.20 294.70 362.67 C 292.72 368.29 290.68 374.00 287.36 379.00 C 283.58 371.82 277.14 366.13 269.40 363.59 C 262.11 360.84 254.19 361.68 246.70 362.91 C 248.17 359.53 250.67 356.77 252.53 353.62 C 258.40 343.87 262.06 332.94 264.65 321.91 C 266.38 312.75 267.81 302.50 263.10 293.96 C 261.86 291.63 260.64 289.10 258.30 287.67 C 260.98 296.18 262.27 305.16 260.82 314.04 C 253.61 305.01 243.52 297.96 232.03 295.84 C 218.45 293.03 203.84 297.42 193.65 306.73 C 189.78 310.03 186.73 314.11 183.59 318.08 C 182.11 312.56 182.04 306.76 182.34 301.09 C 182.58 296.52 184.36 292.24 185.12 287.76 C 179.78 291.99 178.33 299.13 177.00 305.45 C 166.99 305.65 156.87 307.30 147.81 311.74 C 157.48 310.18 167.27 310.15 177.02 309.70 C 178.73 324.41 182.73 339.00 190.05 351.96 C 192.22 355.75 195.13 359.09 197.08 363.01 C 189.15 361.47 180.67 360.84 173.05 364.06 C 165.70 366.64 160.03 372.41 156.08 378.97 C 150.37 369.33 147.32 358.38 144.30 347.67 C 144.06 345.87 142.84 343.77 143.87 342.06 C 148.47 339.57 153.03 337.02 157.63 334.54 C 162.51 331.87 167.83 330.19 172.81 327.75 C 161.98 327.53 151.45 330.98 142.17 336.37 C 140.29 324.91 141.03 313.18 143.19 301.81 C 152.06 297.84 160.51 292.90 169.75 289.81 C 172.35 288.81 175.01 287.96 177.56 286.83 C 166.33 286.58 155.25 289.41 145.16 294.25 C 148.30 283.68 152.06 272.75 159.25 264.22 Z" />
  <path fill="#993346" d=" M 351.79 280.41 C 354.23 276.45 356.32 272.30 358.56 268.23 C 359.57 271.58 360.45 275.00 361.81 278.23 C 366.82 277.52 371.73 275.75 376.76 275.47 C 378.05 279.44 379.22 283.46 380.75 287.35 C 382.76 286.12 384.70 284.77 386.68 283.49 C 385.54 288.11 382.53 291.94 379.73 295.68 C 374.41 302.84 367.33 308.51 359.89 313.33 C 357.01 308.23 353.49 303.45 348.90 299.76 C 351.98 304.65 354.90 309.65 357.30 314.92 C 349.16 319.67 340.31 323.45 330.99 325.11 C 328.05 325.70 325.16 324.47 322.45 323.48 C 321.38 320.43 320.71 317.23 320.20 314.04 C 323.32 310.73 326.86 307.81 330.32 304.86 C 335.30 307.61 339.92 310.90 344.38 314.42 C 342.05 309.54 338.25 305.43 333.65 302.60 C 336.05 298.49 340.15 295.70 342.97 291.89 C 345.33 289.46 346.91 285.98 349.97 284.42 C 355.38 287.56 360.33 291.36 365.16 295.33 C 362.24 289.20 357.49 284.05 351.79 280.41 Z" />
 
  <path fill="#99e5b8" d=" M 215.00 301.00 C 232.28 296.64 250.59 306.25 259.50 321.12 C 257.81 329.99 254.68 338.60 250.66 346.68 C 246.84 354.40 240.34 360.66 237.84 369.05 C 234.78 377.52 234.93 388.20 241.68 394.90 C 229.82 401.43 214.72 400.60 203.23 393.65 C 208.09 387.12 208.79 378.35 206.26 370.76 C 204.47 363.46 199.67 357.56 195.63 351.43 C 190.91 343.60 187.47 335.00 185.25 326.15 C 190.86 314.03 201.82 304.03 215.00 301.00 Z" />
  
  <path fill="#993346" d=" M 123.03 322.77 C 123.66 314.85 127.69 304.95 136.76 304.20 C 137.92 305.50 136.88 307.43 136.96 308.98 C 136.13 314.23 136.24 319.55 135.82 324.84 C 131.66 323.56 127.37 322.93 123.03 322.77 Z" />
  <path fill="#99bc5e" d=" M 266.48 305.50 C 276.98 305.39 287.52 307.31 297.08 311.75 C 286.91 310.07 276.60 310.27 266.37 309.57 C 266.40 308.55 266.45 306.52 266.48 305.50 Z" />
  <path fill="#993346" d=" M 306.34 305.98 C 313.40 307.98 316.07 316.09 316.86 322.63 C 313.91 323.10 310.95 323.50 307.98 323.77 C 307.24 317.86 307.07 311.89 306.34 305.98 Z" />
  <path fill="#2d2d2d" d=" M 272.12 326.75 C 282.10 326.57 292.03 328.97 300.94 333.45 C 302.82 334.89 300.85 337.83 300.90 339.85 C 295.39 337.12 290.05 334.05 284.41 331.60 C 280.33 329.94 276.15 328.52 272.12 326.75 Z" />
  <path fill="#99e5b8" d=" M 115.03 329.98 C 121.72 326.74 129.84 327.31 136.32 330.78 C 136.58 332.17 136.72 333.58 136.85 335.00 C 132.10 331.96 127.59 338.54 129.26 342.87 C 129.81 347.17 135.90 349.92 138.55 345.73 C 138.91 347.11 139.57 348.49 139.51 349.95 C 123.46 353.66 108.55 365.55 104.46 381.96 C 99.51 371.48 97.80 359.21 100.98 347.96 C 103.08 340.48 107.81 333.33 115.03 329.98 Z" />
  <path fill="#2d2d2d" d=" M 142.17 336.37 C 151.45 330.98 161.98 327.53 172.81 327.75 C 167.83 330.19 162.51 331.87 157.63 334.54 C 153.03 337.02 148.47 339.57 143.87 342.06 L 143.16 342.41 C 142.71 340.42 142.31 338.41 142.17 336.37 Z" />
  <path fill="#99e5b8" d=" M 307.42 329.44 C 314.09 326.91 321.86 327.27 327.98 331.10 C 335.20 335.55 339.38 343.66 340.82 351.83 C 342.72 362.03 340.69 372.62 336.48 382.00 C 332.57 366.45 318.95 354.78 303.81 350.66 C 304.48 348.98 303.06 347.05 304.74 345.78 C 304.62 346.35 304.38 347.48 304.26 348.05 C 310.29 350.29 314.42 342.17 311.35 337.54 C 310.53 335.76 308.71 334.93 306.89 334.57 C 306.87 332.85 307.08 331.13 307.42 329.44 Z" />
  
  <path fill="#00bc5e" d=" M 68.21 371.23 C 70.24 359.20 81.40 350.39 93.33 349.68 C 91.07 357.88 90.74 366.85 94.16 374.79 C 94.73 374.79 95.86 374.78 96.43 374.78 C 100.21 388.01 108.45 400.52 120.79 407.13 C 129.13 411.71 139.75 412.59 148.32 408.13 C 154.17 405.35 158.43 400.20 161.57 394.67 C 166.12 398.16 171.03 401.53 176.91 402.15 C 184.74 404.01 192.75 401.40 199.38 397.24 C 202.83 398.96 206.15 401.01 209.88 402.11 C 221.76 406.15 235.14 404.49 246.03 398.42 C 250.11 400.37 254.34 402.34 258.93 402.65 C 266.49 403.10 274.22 400.96 280.11 396.10 C 282.67 400.02 285.57 403.85 289.59 406.40 C 298.27 412.41 310.20 412.39 319.38 407.47 C 331.92 401.21 340.19 388.71 344.25 375.61 C 344.74 375.54 345.73 375.40 346.22 375.33 C 349.89 367.27 349.58 358.03 347.29 349.63 C 353.23 350.30 359.15 352.40 363.79 356.26 C 368.27 360.00 371.22 365.42 372.30 371.12 C 378.23 365.60 386.46 362.97 394.51 363.54 C 390.95 370.68 388.01 379.00 390.96 386.90 C 394.46 388.83 399.37 391.30 398.98 396.02 C 396.60 402.28 389.25 404.13 383.65 406.48 C 362.68 413.19 340.70 415.85 318.90 418.24 C 267.74 423.30 216.25 423.95 164.94 421.75 C 140.60 420.52 116.24 418.68 92.11 415.15 C 77.74 412.91 63.27 410.48 49.59 405.42 C 45.75 403.85 41.79 402.13 38.81 399.17 C 36.81 397.18 36.53 393.62 38.56 391.57 C 41.67 388.05 46.22 386.51 50.32 384.54 C 52.09 377.22 49.21 370.04 46.16 363.51 C 54.10 363.10 62.54 365.44 68.21 371.23 Z" />

</svg>
